<?xml version="1.0" encoding="utf-8"?>
<svg height="700" viewBox="0 0 1200 700" width="1200" xmlns="http://www.w3.org/2000/svg">
<defs>
<linearGradient id="g" x1="0" x2="1"><stop stop-color="#061b3d"/><stop offset="1" stop-color="#0a68b4"/></linearGradient>
</defs>
<rect fill="url(#g)" height="700" width="1200"/>
<g stroke="rgba(255,255,255,.35)" stroke-width="3">
<line x1="100" x2="183" y1="90" y2="227"/>
<line x1="100" x2="349" y1="90" y2="501"/>
<line x1="183" x2="266" y1="227" y2="364"/>
<line x1="183" x2="432" y1="227" y2="168"/>
<line x1="266" x2="349" y1="364" y2="501"/>
<line x1="266" x2="515" y1="364" y2="305"/>
<line x1="349" x2="432" y1="501" y2="168"/>
<line x1="349" x2="598" y1="501" y2="442"/>
<line x1="432" x2="515" y1="168" y2="305"/>
<line x1="432" x2="681" y1="168" y2="109"/>
<line x1="515" x2="598" y1="305" y2="442"/>
<line x1="515" x2="764" y1="305" y2="246"/>
<line x1="598" x2="681" y1="442" y2="109"/>
<line x1="598" x2="847" y1="442" y2="383"/>
<line x1="681" x2="764" y1="109" y2="246"/>
<line x1="681" x2="930" y1="109" y2="520"/>
<line x1="764" x2="847" y1="246" y2="383"/>
<line x1="764" x2="1013" y1="246" y2="187"/>
<line x1="847" x2="930" y1="383" y2="520"/>
<line x1="847" x2="1096" y1="383" y2="324"/>
<line x1="930" x2="1013" y1="520" y2="187"/>
<line x1="930" x2="179" y1="520" y2="461"/>
<line x1="1013" x2="1096" y1="187" y2="324"/>
<line x1="1013" x2="262" y1="187" y2="128"/>
<line x1="1096" x2="179" y1="324" y2="461"/>
<line x1="1096" x2="345" y1="324" y2="265"/>
<line x1="179" x2="262" y1="461" y2="128"/>
<line x1="179" x2="428" y1="461" y2="402"/>
<line x1="262" x2="345" y1="128" y2="265"/>
<line x1="262" x2="511" y1="128" y2="539"/>
<line x1="345" x2="428" y1="265" y2="402"/>
<line x1="345" x2="594" y1="265" y2="206"/>
<line x1="428" x2="511" y1="402" y2="539"/>
<line x1="428" x2="677" y1="402" y2="343"/>
<line x1="511" x2="594" y1="539" y2="206"/>
<line x1="594" x2="677" y1="206" y2="343"/>
</g>
<g fill="white"><circle cx="100" cy="90" opacity="1" r="18"/><circle cx="183" cy="227" opacity="0.75" r="12"/><circle cx="266" cy="364" opacity="1" r="12"/><circle cx="349" cy="501" opacity="0.75" r="18"/><circle cx="432" cy="168" opacity="1" r="12"/><circle cx="515" cy="305" opacity="0.75" r="12"/><circle cx="598" cy="442" opacity="1" r="18"/><circle cx="681" cy="109" opacity="0.75" r="12"/><circle cx="764" cy="246" opacity="1" r="12"/><circle cx="847" cy="383" opacity="0.75" r="18"/><circle cx="930" cy="520" opacity="1" r="12"/><circle cx="1013" cy="187" opacity="0.75" r="12"/><circle cx="1096" cy="324" opacity="1" r="18"/><circle cx="179" cy="461" opacity="0.75" r="12"/><circle cx="262" cy="128" opacity="1" r="12"/><circle cx="345" cy="265" opacity="0.75" r="18"/><circle cx="428" cy="402" opacity="1" r="12"/><circle cx="511" cy="539" opacity="0.75" r="12"/><circle cx="594" cy="206" opacity="1" r="18"/><circle cx="677" cy="343" opacity="0.75" r="12"/></g>
<text fill="white" font-family="Arial, sans-serif" font-size="44" font-weight="700" x="70" y="620">Quantum Molecular Intelligence</text>
</svg>