<svg xmlns="http://www.w3.org/2000/svg" width="1200" height="700" viewBox="0 0 1200 700">
<defs>
  <linearGradient id="g" x1="0" x2="1"><stop stop-color="#0b2a56"/><stop offset="1" stop-color="#0b8ca8"/></linearGradient>
</defs>
<rect width="1200" height="700" fill="url(#g)"/>
<g stroke="rgba(255,255,255,.35)" stroke-width="3">
<line x1="100" y1="90" x2="183" y2="227"/>
<line x1="100" y1="90" x2="349" y2="501"/>
<line x1="183" y1="227" x2="266" y2="364"/>
<line x1="183" y1="227" x2="432" y2="168"/>
<line x1="266" y1="364" x2="349" y2="501"/>
<line x1="266" y1="364" x2="515" y2="305"/>
<line x1="349" y1="501" x2="432" y2="168"/>
<line x1="349" y1="501" x2="598" y2="442"/>
<line x1="432" y1="168" x2="515" y2="305"/>
<line x1="432" y1="168" x2="681" y2="109"/>
<line x1="515" y1="305" x2="598" y2="442"/>
<line x1="515" y1="305" x2="764" y2="246"/>
<line x1="598" y1="442" x2="681" y2="109"/>
<line x1="598" y1="442" x2="847" y2="383"/>
<line x1="681" y1="109" x2="764" y2="246"/>
<line x1="681" y1="109" x2="930" y2="520"/>
<line x1="764" y1="246" x2="847" y2="383"/>
<line x1="847" y1="383" x2="930" y2="520"/>
</g>
<g fill="white"><circle cx="100" cy="90" r="18" opacity="1"/><circle cx="183" cy="227" r="12" opacity="0.75"/><circle cx="266" cy="364" r="12" opacity="1"/><circle cx="349" cy="501" r="18" opacity="0.75"/><circle cx="432" cy="168" r="12" opacity="1"/><circle cx="515" cy="305" r="12" opacity="0.75"/><circle cx="598" cy="442" r="18" opacity="1"/><circle cx="681" cy="109" r="12" opacity="0.75"/><circle cx="764" cy="246" r="12" opacity="1"/><circle cx="847" cy="383" r="18" opacity="0.75"/><circle cx="930" cy="520" r="12" opacity="1"/></g>
<text x="70" y="620" fill="white" font-size="44" font-family="Arial, sans-serif" font-weight="700">Predictive QM/MM</text>
</svg>